# Blender 4.1.1
# www.blender.org
mtllib ask.mtl
o Plane
v -0.867022 0.000000 -0.491515
v 0.867022 0.000000 -0.491515
v -0.795699 0.000000 -0.867022
v 0.795699 0.000000 -0.867022
v 0.000000 0.000000 -0.491515
v 0.000000 0.000000 -0.867022
v -1.260801 0.000000 2.002418
v -0.393779 0.000000 2.002418
v 1.195172 0.000000 2.015544
v 0.328149 0.000000 2.015544
v -1.063912 0.000000 0.755452
v -0.196889 0.000000 0.755452
v 0.164075 0.000000 0.762015
v 1.031097 0.000000 0.762015
v 0.244435 0.000000 1.375965
v 1.111457 0.000000 1.375965
v -1.160272 0.000000 1.365735
v -0.293250 0.000000 1.365735
v 2.707947 0.000000 -0.487902
v 3.564641 0.000000 -0.498840
v 2.707947 0.000000 -1.000040
v 3.564641 0.000000 -1.010978
v 2.501141 0.000000 -0.425030
v 2.393260 0.000000 -0.925677
v 2.327649 0.000000 -0.249200
v 1.944620 0.000000 -0.589162
v 2.190557 0.000000 0.102064
v 1.688305 0.000000 0.001920
v 2.259060 0.000000 0.319957
v 1.802782 0.000000 0.552543
v 2.538836 0.000000 0.422189
v 2.190882 0.000000 0.797973
v 2.839952 0.000000 0.467557
v 2.612538 0.000000 0.926435
v 3.187613 0.000000 0.458409
v 2.960200 0.000000 0.917286
v 3.531099 0.000000 0.682280
v 3.165653 0.000000 1.041076
v 3.713714 0.000000 1.221065
v 3.202614 0.000000 1.188466
v 3.572104 0.000000 1.632699
v 3.142947 0.000000 1.353219
v 3.184944 0.000000 2.003268
v 2.986738 0.000000 1.467750
v 2.759488 0.000000 2.000623
v 2.757045 0.000000 1.488490
v 1.891835 0.000000 1.987794
v 1.889392 0.000000 1.475661
v 4.496107 0.000000 2.024652
v 5.269611 0.000000 2.024652
v 4.496107 0.000000 -0.987701
v 5.269611 0.000000 -0.987701
v 4.496107 0.000000 -0.234613
v 4.496107 0.000000 0.518476
v 4.496107 0.000000 1.271564
v 5.269611 0.000000 1.271564
v 5.269611 0.000000 0.518476
v 5.269611 0.000000 -0.234613
v 6.781549 0.000000 -0.998677
v 6.028465 0.000000 -1.001378
v 6.061357 0.000000 1.970197
v 6.814287 0.000000 1.985627
vn -0.0000 1.0000 -0.0000
vt 0.500000 0.000000
vt 1.000000 1.000000
vt 0.500000 1.000000
vt 0.000000 1.000000
vt 0.000000 0.000000
vt 1.000000 0.000000
vt 1.000000 0.750000
vt 0.000000 0.750000
vt 0.000000 0.250000
vt 1.000000 0.250000
vt 0.000000 0.500000
vt 1.000000 0.500000
s 0
f 5/1/1 4/2/1 6/3/1
f 5/1/1 3/4/1 1/5/1
f 17/5/1 8/1/1 18/1/1
f 16/6/1 10/1/1 9/6/1
f 1/5/1 12/1/1 5/1/1
f 2/6/1 13/1/1 14/6/1
f 14/6/1 15/1/1 16/6/1
f 11/5/1 18/1/1 12/1/1
f 18/1/1 13/1/1 12/1/1
f 20/6/1 21/4/1 19/5/1
f 19/5/1 24/4/1 23/5/1
f 23/5/1 26/4/1 25/5/1
f 25/5/1 28/4/1 27/5/1
f 27/5/1 30/4/1 29/5/1
f 29/5/1 32/4/1 31/5/1
f 31/5/1 34/4/1 33/5/1
f 33/5/1 36/4/1 35/5/1
f 35/5/1 38/4/1 37/5/1
f 38/4/1 39/5/1 37/5/1
f 40/4/1 41/5/1 39/5/1
f 41/5/1 44/4/1 43/5/1
f 44/4/1 45/5/1 43/5/1
f 46/4/1 47/5/1 45/5/1
f 58/7/1 51/4/1 53/8/1
f 50/6/1 55/9/1 49/5/1
f 56/10/1 54/11/1 55/9/1
f 57/12/1 53/8/1 54/11/1
f 58/7/1 59/12/1 60/7/1
f 57/12/1 61/10/1 62/12/1
f 5/1/1 2/6/1 4/2/1
f 5/1/1 6/3/1 3/4/1
f 17/5/1 7/5/1 8/1/1
f 16/6/1 15/1/1 10/1/1
f 1/5/1 11/5/1 12/1/1
f 2/6/1 5/1/1 13/1/1
f 14/6/1 13/1/1 15/1/1
f 11/5/1 17/5/1 18/1/1
f 18/1/1 15/1/1 13/1/1
f 20/6/1 22/2/1 21/4/1
f 19/5/1 21/4/1 24/4/1
f 23/5/1 24/4/1 26/4/1
f 25/5/1 26/4/1 28/4/1
f 27/5/1 28/4/1 30/4/1
f 29/5/1 30/4/1 32/4/1
f 31/5/1 32/4/1 34/4/1
f 33/5/1 34/4/1 36/4/1
f 35/5/1 36/4/1 38/4/1
f 38/4/1 40/4/1 39/5/1
f 40/4/1 42/4/1 41/5/1
f 41/5/1 42/4/1 44/4/1
f 44/4/1 46/4/1 45/5/1
f 46/4/1 48/4/1 47/5/1
f 58/7/1 52/2/1 51/4/1
f 50/6/1 56/10/1 55/9/1
f 56/10/1 57/12/1 54/11/1
f 57/12/1 58/7/1 53/8/1
f 58/7/1 57/12/1 59/12/1
f 57/12/1 56/10/1 61/10/1
